<svg xmlns="http://www.w3.org/2000/svg" version="1.1" xmlns:xlink="http://www.w3.org/1999/xlink" xmlns:svgjs="http://svgjs.dev/svgjs" width="1500" height="1500" viewBox="0 0 1500 1500"><g transform="matrix(1,0,0,1,-0.21332335329316265,-0.21332335329350371)"><svg viewBox="0 0 334 334" data-background-color="#1f299c" preserveAspectRatio="xMidYMid meet" height="1500" width="1500" xmlns="http://www.w3.org/2000/svg" xmlns:xlink="http://www.w3.org/1999/xlink"><g id="tight-bounds" transform="matrix(1,0,0,1,0.04749999999998522,0.04750000000001364)"><svg viewBox="0 0 333.90454557049503 333.90454557049503" height="333.90454557049503" width="333.90454557049503"><g><svg></svg></g><g><svg viewBox="0 0 333.90454557049503 333.90454557049503" height="333.90454557049503" width="333.90454557049503"><g><path d="M0 166.952c0-92.205 74.747-166.952 166.952-166.952 92.205 0 166.952 74.747 166.953 166.952 0 92.205-74.747 166.952-166.953 166.953-92.205 0-166.952-74.747-166.952-166.953zM166.952 329.549c89.8 0 162.597-72.797 162.597-162.597 0-89.8-72.797-162.597-162.597-162.597-89.8 0-162.597 72.797-162.597 162.597 0 89.8 72.797 162.597 162.597 162.597z" data-fill-palette-color="tertiary" fill="#e1eaf9" stroke="transparent"></path><ellipse rx="160.27418187383762" ry="160.27418187383762" cx="166.95227278524752" cy="166.95227278524752" fill="#e1eaf9" stroke="transparent" stroke-width="0" fill-opacity="1" data-fill-palette-color="tertiary"></ellipse></g><g transform="matrix(1,0,0,1,99.57845447299215,71.17305217166896)"><svg viewBox="0 0 134.74763662451073 191.55844122715712" height="191.55844122715712" width="134.74763662451073"><g><svg viewBox="0 0 134.74763662451073 191.55844122715712" height="191.55844122715712" width="134.74763662451073"><g><svg viewBox="0 0 213.1584412271571 303.0279399234922" height="191.55844122715712" width="134.74763662451073"><g transform="matrix(1,0,0,1,0,183.38401368068102)"><svg viewBox="0 0 213.1584412271571 119.6439262428112" height="119.6439262428112" width="213.1584412271571"><g id="textblocktransform"><svg viewBox="0 0 213.1584412271571 119.6439262428112" height="119.6439262428112" width="213.1584412271571" id="textblock"><g><svg viewBox="0 0 213.1584412271571 76.39958154626446" height="76.39958154626446" width="213.1584412271571"><g transform="matrix(1,0,0,1,0,0)"><svg width="213.1584412271571" viewBox="0.8 -38.25 163.060701751932 58.449999999999996" height="76.39958154626446" data-palette-color="#1f299c"><path d="M23.75-34.65L23.75-34.65Q24.1-34.9 24.05-34.68 24-34.45 23.9-34.3L23.9-34.3Q23.45-33.6 22.73-33.1 22-32.6 21.18-32.3 20.35-32 19.55-31.85 18.75-31.7 18.15-31.7L18.15-31.7Q16.6-31.7 14.95-32 13.3-32.3 11.65-32.65L11.65-32.65Q11.55-32.65 11.3-32.75 11.05-32.85 11.05-32.95L11.05-32.95Q10.95-33.1 11.23-33.2 11.5-33.3 11.6-33.3L11.6-33.3Q11.95-33.4 12.53-33.48 13.1-33.55 13.75-33.6 14.4-33.65 14.98-33.65 15.55-33.65 15.95-33.65L15.95-33.65Q17.05-33.55 18.23-33.55 19.4-33.55 20.45-33.65 21.5-33.75 22.38-34 23.25-34.25 23.75-34.65ZM24.45-36.3L24.45-36.3Q24.7-36.4 24.6-36.25 24.5-36.1 24.45-36.05L24.45-36.05Q23.15-34.9 21.6-34.6 20.05-34.3 18.38-34.38 16.7-34.45 14.93-34.68 13.15-34.9 11.35-34.8L11.35-34.8Q10.3-34.75 9.15-34.4 8-34.05 6.98-33.43 5.95-32.8 5.13-31.83 4.3-30.85 3.85-29.6L3.85-29.6Q3.75-29.4 3.73-29.4 3.7-29.4 3.68-29.45 3.65-29.5 3.65-29.6 3.65-29.7 3.65-29.75L3.65-29.75Q3.95-31.55 4.75-32.8 5.55-34.05 6.65-34.83 7.75-35.6 9.05-35.95 10.35-36.3 11.65-36.35L11.65-36.35Q13.45-36.4 15.18-36.23 16.9-36.05 18.53-35.9 20.15-35.75 21.65-35.77 23.15-35.8 24.45-36.3ZM8-32.4L8-32.4Q8.1-32.25 7.7-31.9 7.3-31.55 7.1-31.45L7.1-31.45Q6.7-31.15 6.35-30.88 6-30.6 5.7-30.2L5.7-30.2Q5.3-29.75 5.03-29.3 4.75-28.85 4.5-28.3L4.5-28.3Q4.4-27.95 4.3-27.95L4.3-27.95Q4.25-27.95 4.25-28.3L4.25-28.3 4.25-28.65Q4.35-29.4 4.55-30 4.75-30.6 5.25-31.25L5.25-31.25Q5.45-31.55 5.93-31.83 6.4-32.1 6.85-32.3 7.3-32.5 7.65-32.55 8-32.6 8-32.4ZM21.5-31.3L21.5-31.3Q21.75-31.4 21.73-31.28 21.7-31.15 21.6-31.05L21.6-31.05Q20.95-30.3 19.73-29.95 18.5-29.6 17.1-29.48 15.7-29.35 14.33-29.4 12.95-29.45 12.05-29.45L12.05-29.45Q12.35-28.45 12.33-27.03 12.3-25.6 12.08-23.98 11.85-22.35 11.5-20.7 11.15-19.05 10.8-17.6L10.8-17.6Q12.15-17.5 13.45-17.32 14.75-17.15 15.95-17.07 17.15-17 18.25-17.07 19.35-17.15 20.4-17.55L20.4-17.55Q20.65-17.65 20.65-17.5 20.65-17.35 20.55-17.25L20.55-17.25Q19.35-16.05 17.9-15.75 16.45-15.45 14.85-15.55 13.25-15.65 11.6-15.9 9.95-16.15 8.3-16.1L8.3-16.1Q7.25-16.05 6.2-15.75 5.15-15.45 4.17-14.85 3.2-14.25 2.38-13.38 1.55-12.5 1.05-11.3L1.05-11.3Q1-11.1 0.9-11.1L0.9-11.1Q0.8-11.1 0.8-11.28 0.8-11.45 0.85-11.55L0.85-11.55Q1.1-13 1.7-13.95 2.3-14.9 3.15-15.6L3.15-15.6Q4-19.2 5.08-22.8 6.15-26.4 6.85-29.6L6.85-29.6Q6.8-29.6 6.53-29.63 6.25-29.65 6.25-29.75L6.25-29.75Q6.25-29.85 6.4-29.95 6.55-30.05 6.7-30.15L6.7-30.15Q8.8-31.15 11-31.23 13.2-31.3 15.5-31.1L15.5-31.1Q16.95-31 18.43-30.9 19.9-30.8 21.5-31.3ZM11.65-29.45L10.5-29.45Q10.55-28.2 10.5-27.1 10.45-26 10.2-25.15L10.2-25.15Q9.75-23.35 9.2-21.4 8.65-19.45 7.95-17.6L7.95-17.6Q8.15-17.65 8.4-17.65 8.65-17.65 8.9-17.65L8.9-17.65 9.65-20Q10.35-22.2 10.93-24.55 11.5-26.9 11.65-29.45L11.65-29.45ZM9.3-29.5L8.35-29.5Q7.95-26.5 6.9-23.35 5.85-20.2 5-16.9L5-16.9Q5.4-17.05 5.73-17.18 6.05-17.3 6.35-17.4L6.35-17.4Q6.6-18.4 6.85-19.33 7.1-20.25 7.35-20.95L7.35-20.95Q7.45-21.25 7.7-22.1 7.95-22.95 8.25-24.15 8.55-25.35 8.85-26.75 9.15-28.15 9.3-29.5L9.3-29.5ZM19.95-15.9L19.95-15.9Q20.2-16.1 20.18-15.88 20.15-15.65 20.05-15.55L20.05-15.55Q19.65-14.85 19.03-14.3 18.4-13.75 17.7-13.43 17-13.1 16.28-12.93 15.55-12.75 15-12.8L15-12.8Q13.45-12.9 11.75-13.23 10.05-13.55 8.5-13.9L8.5-13.9Q8.4-13.95 8.18-14.03 7.95-14.1 7.95-14.25L7.95-14.25Q7.9-14.35 8.13-14.48 8.35-14.6 8.45-14.6L8.45-14.6Q8.8-14.7 9.33-14.75 9.85-14.8 10.43-14.85 11-14.9 11.53-14.88 12.05-14.85 12.4-14.8L12.4-14.8Q13.3-14.7 14.38-14.7 15.45-14.7 16.53-14.85 17.6-15 18.5-15.25 19.4-15.5 19.95-15.9ZM21.05-6.5L21.05-6.5Q21.15-6.55 21.15-6.45L21.15-6.45Q21.15-6.35 21.1-6.25L21.1-6.25Q20-5.05 18.68-4.75 17.35-4.45 15.9-4.53 14.45-4.6 12.95-4.9 11.45-5.2 10-5.2L10-5.2Q8.15-5.25 6.23-4.35 4.3-3.45 3-1.25L3-1.25Q2.85-1.05 2.8-1.05L2.8-1.05Q2.75-1.05 2.78-1.2 2.8-1.35 2.8-1.4L2.8-1.4Q3-1.95 3.18-2.25 3.35-2.55 3.55-2.95L3.55-2.95Q2.85-4.35 2.55-5.78 2.25-7.2 2.2-8.75L2.2-8.75Q2.2-9.9 2.4-10.45 2.6-11 3.75-11.6L3.75-11.6Q5.65-12.6 7.8-12.6 9.95-12.6 12.1-12.35L12.1-12.35Q13.5-12.2 14.9-12.13 16.3-12.05 17.8-12.55L17.8-12.55Q18.05-12.65 18-12.48 17.95-12.3 17.85-12.2L17.85-12.2Q17.2-11.4 16.05-11.1 14.9-10.8 13.6-10.73 12.3-10.65 11.1-10.7 9.9-10.75 9.2-10.7L9.2-10.7 8.9-10.7Q8.55-9.5 8.18-8.43 7.8-7.35 7.45-6.35L7.45-6.35Q8.2-6.6 8.88-6.73 9.55-6.85 10.3-6.8L10.3-6.8Q11.75-6.75 13.2-6.5 14.65-6.25 16.03-6.08 17.4-5.9 18.68-5.93 19.95-5.95 21.05-6.5ZM7.2-10.75L7.2-10.75Q6.9-10.8 6.28-10.88 5.65-10.95 4.9-10.85L4.9-10.85Q4.4-10.8 4.05-10.45 3.7-10.1 3.65-9.6L3.65-9.6Q3.55-8.1 3.7-6.73 3.85-5.35 4.2-3.9L4.2-3.9 4.8-4.65Q4.75-5.25 4.75-5.95 4.75-6.65 4.83-7.23 4.9-7.8 5-8.15 5.1-8.5 5.25-8.5L5.25-8.5Q5.35-8.5 5.4-8.25 5.45-8 5.5-7.7 5.55-7.4 5.58-7.1 5.6-6.8 5.6-6.65L5.6-6.65Q5.65-6.35 5.68-6.08 5.7-5.8 5.75-5.5L5.75-5.5Q6-5.65 6.2-5.8 6.4-5.95 6.65-6.05L6.65-6.05Q6.7-8.3 7.2-10.75ZM20.7-4.85L20.7-4.85Q20.7-4.7 20.6-4.5L20.6-4.5Q20.3-3.8 19.75-3.28 19.2-2.75 18.55-2.4 17.9-2.05 17.23-1.88 16.55-1.7 16.05-1.7L16.05-1.7Q14.3-1.7 12.88-2.1 11.45-2.5 10.05-3L10.05-3Q9.95-3.05 9.75-3.15 9.55-3.25 9.5-3.4L9.5-3.4Q9.45-3.5 9.7-3.6 9.95-3.7 10.05-3.7L10.05-3.7Q10.35-3.75 10.83-3.78 11.3-3.8 11.83-3.8 12.35-3.8 12.85-3.78 13.35-3.75 13.7-3.75L13.7-3.75Q14.55-3.7 15.55-3.68 16.55-3.65 17.48-3.78 18.4-3.9 19.23-4.15 20.05-4.4 20.5-4.85L20.5-4.85Q20.65-5 20.7-4.85ZM5.15-13.85L5.15-13.85Q5.15-13.7 4.83-13.4 4.5-13.1 4.08-12.75 3.65-12.4 3.28-12.1 2.9-11.8 2.8-11.7L2.8-11.7Q2.4-11.3 2.05-10.93 1.7-10.55 1.45-10L1.45-10Q1.2-9.55 1.2-9.88 1.2-10.2 1.25-10.35L1.25-10.35Q1.35-10.75 1.58-11.43 1.8-12.1 2.45-12.75L2.45-12.75Q2.75-13 3.18-13.28 3.6-13.55 4.03-13.73 4.45-13.9 4.78-13.95 5.1-14 5.15-13.85ZM18.85-1.45L18.85-1.45Q18.9-1.25 18.7-1.15L18.7-1.15Q18.1-0.65 17.03-0.43 15.95-0.2 14.73-0.1 13.5 0 12.35 0 11.2 0 10.5 0L10.5 0Q9.25 0 7.88-0.18 6.5-0.35 5.5-0.6L5.5-0.6Q5.4-0.65 5.23-0.68 5.05-0.7 5.05-0.8L5.05-0.8Q5.05-0.9 5.23-0.98 5.4-1.05 5.5-1.1L5.5-1.1Q7.4-1.7 9.38-1.63 11.35-1.55 13.35-1.3L13.35-1.3Q14.6-1.1 15.88-1 17.15-0.9 18.55-1.45L18.55-1.45Q18.85-1.55 18.85-1.45ZM7-3.15L7-3.15Q7-3 6.68-2.78 6.35-2.55 5.95-2.3 5.55-2.05 5.18-1.83 4.8-1.6 4.65-1.5L4.65-1.5Q4.25-1.15 3.95-0.9 3.65-0.65 3.35-0.25L3.35-0.25Q3.1 0 3 0L3 0 2.95 0 2.95-0.05Q2.95-0.05 2.95-0.15L2.95-0.15Q3.2-0.9 3.48-1.4 3.75-1.9 4.45-2.45L4.45-2.45Q4.75-2.65 5.15-2.88 5.55-3.1 5.95-3.23 6.35-3.35 6.65-3.35 6.95-3.35 7-3.15ZM43.35-17.6L43.35-17.6Q42.95-15.6 42-13.6 41.05-11.6 40.2-9.85L40.2-9.85Q40.15-9.75 39.97-9.5 39.8-9.25 39.7-9.25L39.7-9.25Q39.55-9.3 39.55-9.58 39.55-9.85 39.55-9.95L39.55-9.95Q39.6-10.4 39.72-11.03 39.85-11.65 39.95-12.33 40.05-13 40.17-13.63 40.3-14.25 40.45-14.75L40.45-14.75Q40.9-16.45 41.2-17.68 41.5-18.9 41.65-19.9 41.8-20.9 41.82-21.8 41.85-22.7 41.7-23.75L41.7-23.75Q41.65-24.15 41.75-24.25L41.75-24.25Q41.85-24.3 42-24.15 42.15-24 42.25-23.85L42.25-23.85Q43.1-22.5 43.4-20.88 43.7-19.25 43.35-17.6ZM44.35-21.25L44.55-20.95Q45.2-20 45.2-18.45 45.2-16.9 44.9-15.28 44.6-13.65 44.15-12.15 43.7-10.65 43.5-9.75L43.5-9.75Q43.1-8 42.4-6.25 41.7-4.5 41.2-3.15L41.2-3.15Q41.15-3 41.05-2.83 40.95-2.65 40.85-2.65L40.85-2.65Q40.75-2.65 40.75-2.85 40.75-3.05 40.75-3.2L40.75-3.2Q40.6-5.95 41.35-8.58 42.1-11.2 42.95-13.9L42.95-13.9Q43.45-15.55 43.9-17.28 44.35-19 44.3-21.05L44.3-21.05Q44.3-21.25 44.35-21.25L44.35-21.25ZM39.85-21.8L39.85-21.8Q36.8-20.55 34.67-18.23 32.55-15.9 31.4-13L31.4-13Q30.9-11.7 30.65-10.68 30.4-9.65 30.25-8.45L30.25-8.45Q30.2-8.2 30.4-7.95 30.6-7.7 30.8-7.95L30.8-7.95Q31.7-9.05 33.1-10.75 34.5-12.45 35.9-14.35 37.3-16.25 38.42-18.2 39.55-20.15 39.85-21.8ZM36.5-4.85L36.5-4.85Q35.75-3.8 35.05-2.9 34.35-2 33.5-1.33 32.65-0.65 31.6-0.25 30.55 0.15 29.2 0.2L29.2 0.2Q26.95 0.3 25.77-0.95 24.6-2.2 24.15-4 23.7-5.8 23.82-7.73 23.95-9.65 24.35-10.9L24.35-10.9Q24.9-12.65 25.67-14.23 26.45-15.8 27.32-17.07 28.2-18.35 29.12-19.28 30.05-20.2 30.95-20.7L30.95-20.7Q31-20.7 31.17-20.8 31.35-20.9 31.35-20.75L31.35-20.75Q31.4-20.75 31.3-20.6 31.2-20.45 31.1-20.35L31.1-20.35Q28.5-17.65 26.97-14.25 25.45-10.85 25.25-7.25L25.25-7.25Q25.2-6.35 25.32-5.3 25.45-4.25 25.82-3.33 26.2-2.4 26.9-1.78 27.6-1.15 28.8-1.15L28.8-1.15Q29.75-1.15 30.55-1.48 31.35-1.8 32.05-2.33 32.75-2.85 33.32-3.48 33.9-4.1 34.35-4.65L34.35-4.65Q35.35-5.9 36.2-7.25L36.2-7.25Q36.2-8.25 36.32-9.2 36.45-10.15 36.7-11.1L36.7-11.1Q36.85-11.8 36.97-12.23 37.1-12.65 37.22-13.03 37.35-13.4 37.47-13.83 37.6-14.25 37.85-14.95L37.85-14.95Q37.05-13.55 36.27-12.33 35.5-11.1 34.62-9.98 33.75-8.85 32.82-7.78 31.9-6.7 30.8-5.6L30.8-5.6Q29.95-4.75 29.4-5.05 28.85-5.35 28.75-6.45L28.75-6.45Q28.65-8.15 28.92-9.75 29.2-11.35 29.9-13.1L29.9-13.1Q30.55-14.7 31.52-16.2 32.5-17.7 33.77-18.93 35.05-20.15 36.6-21.03 38.15-21.9 39.9-22.2L39.9-22.2Q40-22.75 40.07-23.15 40.15-23.55 40.2-23.95L40.2-23.95Q40.3-24.5 40.3-24.5L40.3-24.5Q40.4-24.55 40.52-24.4 40.65-24.25 40.75-24L40.75-24Q41.35-22.35 41.15-20.7 40.95-19.05 40.42-17.35 39.9-15.65 39.2-13.88 38.5-12.1 38.05-10.3L38.05-10.3Q37.45-7.75 37.72-5.03 38-2.3 39.85-0.1L39.85-0.1Q40 0.1 40 0.1L40 0.1Q39.95 0.15 39.7 0L39.7 0Q38.25-0.9 37.52-2.18 36.8-3.45 36.5-4.85ZM38.25-22.55L38.25-22.55Q38.35-22.45 38.22-22.4 38.1-22.35 37.7-22.25L37.7-22.25Q37.05-22.05 36.12-21.5 35.2-20.95 34.17-20.1 33.15-19.25 32.15-18.13 31.15-17 30.4-15.7L30.4-15.7Q29.65-14.35 29.12-13.05 28.6-11.75 28.27-10.68 27.95-9.6 27.8-8.83 27.65-8.05 27.65-7.75L27.65-7.75Q27.65-7 27.65-6.18 27.65-5.35 27.85-4.7 28.05-4.05 28.55-3.7 29.05-3.35 30.05-3.5L30.05-3.5Q30.1-3.5 30.3-3.58 30.5-3.65 30.7-3.73 30.9-3.8 31.07-3.85 31.25-3.9 31.3-3.9L31.3-3.9Q31.35-3.8 31.22-3.65 31.1-3.5 30.9-3.33 30.7-3.15 30.52-3 30.35-2.85 30.3-2.8L30.3-2.8Q29.05-2.05 28.2-2.35 27.35-2.65 26.87-3.48 26.4-4.3 26.22-5.43 26.05-6.55 26.1-7.45L26.1-7.45Q26.2-9.2 26.65-10.93 27.1-12.65 27.8-14.4L27.8-14.4Q28.35-15.75 29.45-17.18 30.55-18.6 31.92-19.8 33.3-21 34.8-21.78 36.3-22.55 37.7-22.6L37.7-22.6Q38.2-22.6 38.25-22.55ZM41.2-0.1L41.2-0.1Q41.3 0.05 41.25 0.1L41.25 0.1Q41.1 0.1 40.85 0L40.85 0Q40.7-0.1 40.05-0.6 39.4-1.1 39.1-2.2L39.1-2.2Q39-2.6 38.92-3.23 38.85-3.85 38.85-4.4 38.85-4.95 38.92-5.35 39-5.75 39.15-5.75L39.15-5.75Q39.3-5.75 39.47-5.15 39.65-4.55 39.7-4.4L39.7-4.4Q39.85-3.7 39.97-3.18 40.1-2.65 40.25-2.2L40.25-2.2Q40.45-1.65 40.77-0.95 41.1-0.25 41.2-0.1ZM51.25-18.45L51.25-18.45Q51.3-18.9 51.55-19.53 51.8-20.15 52.22-20.73 52.65-21.3 53.25-21.78 53.85-22.25 54.6-22.4L54.6-22.4Q56.2-22.7 57.25-22.2 58.3-21.7 58.85-21.05L58.85-21.05Q59.05-20.75 59-20.7L59-20.7Q58.9-20.6 58.65-20.75L58.65-20.75Q58.35-20.95 57.67-21.1 57-21.25 56.22-21.18 55.45-21.1 54.72-20.7 54-20.3 53.55-19.4L53.55-19.4Q53.15-18.55 53-17.65 52.85-16.75 52.82-15.98 52.8-15.2 52.85-14.65 52.9-14.1 52.9-13.9L52.9-13.9Q53-13.35 53.07-12.53 53.15-11.7 53.15-10.85 53.15-10 53.1-9.18 53.05-8.35 52.9-7.75L52.9-7.75Q52.85-7.6 52.77-7.25 52.7-6.9 52.6-6.9L52.6-6.9Q52.35-6.9 52.35-7.25 52.35-7.6 52.35-7.75L52.35-7.75Q52.25-9 52-10.28 51.75-11.55 51.52-12.9 51.3-14.25 51.2-15.63 51.1-17 51.25-18.45ZM49.5-8.55L49.5-8.55Q49.55-9.55 49.32-11.38 49.1-13.2 49.15-15.6L49.15-15.6Q49.2-16.85 49.4-18.18 49.6-19.5 50.35-20.8L50.35-20.8Q51.15-22.2 52.37-22.88 53.6-23.55 54.5-23.5L54.5-23.5Q54.65-23.5 54.8-23.5 54.95-23.5 54.95-23.45L54.95-23.45Q54.95-23.35 54.9-23.38 54.85-23.4 54.55-23.3L54.55-23.3Q53.65-23.05 52.95-22.48 52.25-21.9 51.75-21.15 51.25-20.4 50.95-19.6 50.65-18.8 50.6-18.15L50.6-18.15Q50.3-15.4 50.65-13.35L50.65-13.35Q50.9-11.7 51.05-9.93 51.2-8.15 50.92-6.68 50.65-5.2 49.87-4.23 49.1-3.25 47.5-3.15L47.5-3.15Q47.35-3.15 47.12-3.18 46.9-3.2 46.9-3.3L46.9-3.3Q46.9-3.4 47.35-3.65L47.35-3.65Q48.65-4.25 49.05-5.4 49.45-6.55 49.5-8.55ZM44.2-2.65L44.2-2.65Q44.9-1.55 46.42-1.03 47.95-0.5 50.05-1.1L50.05-1.1Q51.1-1.4 51.9-2.15 52.7-2.9 53.22-3.83 53.75-4.75 54.02-5.75 54.3-6.75 54.35-7.6L54.35-7.6Q54.4-9 54.27-10.35 54.15-11.7 53.97-12.98 53.8-14.25 53.67-15.45 53.55-16.65 53.65-17.8L53.65-17.8Q53.75-19.05 54.35-19.7 54.95-20.35 55.82-20.53 56.7-20.7 57.65-20.4 58.6-20.1 59.4-19.45L59.4-19.45Q59.6-19.35 59.55-19.2L59.55-19.2Q59.55-19.1 59.45-19.15 59.35-19.2 59.25-19.25L59.25-19.25Q57.4-19.85 56.37-19.6 55.35-19.35 55.25-17.8L55.25-17.8Q55.15-16 55.52-13.58 55.9-11.15 55.8-8.2L55.8-8.2Q55.85-7.2 55.57-5.9 55.3-4.6 54.67-3.38 54.05-2.15 53.02-1.2 52-0.25 50.6 0L50.6 0Q47.95 0.4 46.37-0.3 44.8-1 44.1-2.45L44.1-2.45Q44-2.75 44-2.8L44-2.8 44.05-2.8Q44.05-2.8 44.2-2.65ZM46.4-2.65L46.4-2.65Q47.35-2.4 48.7-2.45L48.7-2.45Q49.15-2.5 49.8-2.7 50.45-2.9 50.5-2.8L50.5-2.8Q50.65-2.6 50.2-2.3 49.75-2 49.05-1.78 48.35-1.55 47.6-1.48 46.85-1.4 46.35-1.6L46.35-1.6Q45.4-2 44.97-2.48 44.55-2.95 44.2-3.65L44.2-3.65 44.1-3.85Q44-4.05 44.05-4.1L44.05-4.1Q44.1-4.15 44.2-4.1L44.2-4.1Q44.25-4.05 44.25-4L44.25-4Q44.85-3.45 45.27-3.18 45.7-2.9 46.4-2.65ZM76.94-17.35L76.94-17.35Q76.94-14.85 76.27-12.13 75.59-9.4 74.49-6.75 73.39-4.1 71.97-1.73 70.54 0.65 69.04 2.35L69.04 2.35Q68.49 2.95 68.39 2.9 68.29 2.85 68.49 2.15L68.49 2.15Q68.79 1.35 69.27 0.35 69.74-0.65 70.22-1.63 70.69-2.6 71.17-3.5 71.64-4.4 71.94-5L71.94-5Q72.29-5.75 72.74-6.98 73.19-8.2 73.62-9.7 74.04-11.2 74.44-12.85 74.84-14.5 75.14-16.03 75.44-17.55 75.62-18.82 75.79-20.1 75.74-20.9L75.74-20.9Q75.69-21.8 75.77-22.08 75.84-22.35 75.94-22.28 76.04-22.2 76.17-21.95 76.29-21.7 76.39-21.5L76.39-21.5Q76.74-20.5 76.84-19.25 76.94-18 76.94-17.35ZM67.09-3.55L67.09-3.55Q66.74-3.15 66.14-2.8 65.54-2.45 64.99-2.45L64.99-2.45Q63.79-2.45 63.02-3.15 62.24-3.85 61.79-4.88 61.34-5.9 61.17-7.05 60.99-8.2 60.99-9.1L60.99-9.1Q60.99-10.45 61.27-12.23 61.54-14 62.12-15.78 62.69-17.55 63.52-19.13 64.34-20.7 65.49-21.65L65.49-21.65Q65.79-21.85 66.04-22.03 66.29-22.2 65.89-21.5L65.89-21.5Q65.59-20.95 65.32-20.55 65.04-20.15 64.89-19.65L64.89-19.65Q64.09-18.2 63.62-16.6 63.14-15 62.84-13.35L62.84-13.35Q62.39-11.15 62.39-8.95L62.39-8.95Q62.39-8.15 62.47-7.2 62.54-6.25 62.84-5.4 63.14-4.55 63.77-3.98 64.39-3.4 65.49-3.4L65.49-3.4Q65.79-3.4 66.19-3.55 66.59-3.7 66.84-3.85L66.84-3.85Q67.24-4 67.24-3.9 67.24-3.8 67.09-3.55ZM78.24-16.5L78.24-16.5Q78.44-15.75 78.44-14.75L78.44-14.75Q78.44-12.7 77.84-10.23 77.24-7.75 76.27-5.1 75.29-2.45 73.97 0.25 72.64 2.95 71.22 5.45 69.79 7.95 68.29 10.13 66.79 12.3 65.44 13.9L65.44 13.9Q65.39 13.95 65.27 14.1 65.14 14.25 65.02 14.38 64.89 14.5 64.79 14.55 64.69 14.6 64.69 14.4L64.69 14.4Q64.69 14.3 65.32 13.08 65.94 11.85 66.89 10.03 67.84 8.2 68.97 6.08 70.09 3.95 71.14 2 72.19 0.05 72.97-1.45 73.74-2.95 73.99-3.5L73.99-3.5Q75.44-6.7 76.47-9.93 77.49-13.15 77.89-16.6L77.89-16.6Q77.94-17 77.97-17.03 77.99-17.05 78.24-16.5ZM74.99-20.2L74.99-20.2Q74.99-17.4 74.22-14.53 73.44-11.65 72.29-8.85 71.14-6.05 69.77-3.43 68.39-0.8 67.14 1.45L67.14 1.45Q64.89 5.65 63.34 9.98 61.79 14.3 61.19 19L61.19 19Q61.09 19.55 61.04 19.45L61.04 19.45Q60.99 19.45 60.92 19.18 60.84 18.9 60.79 18.57 60.74 18.25 60.72 17.9 60.69 17.55 60.69 17.3L60.69 17.3Q60.69 15.05 61.19 12.75 61.69 10.45 62.49 8.25 63.29 6.05 64.27 3.95 65.24 1.85 66.24 0L66.24 0 64.89 0Q63.39 0 62.29-0.7 61.19-1.4 60.49-2.55 59.79-3.7 59.42-5.25 59.04-6.8 59.04-8.5L59.04-8.5Q59.04-9.15 59.19-10.33 59.34-11.5 59.64-12.78 59.94-14.05 60.39-15.28 60.84-16.5 61.39-17.25L61.39-17.25Q61.79-17.8 61.84-17.7 61.89-17.6 61.74-17.05L61.74-17.05Q61.09-15.15 60.72-13.1 60.34-11.05 60.34-9.05L60.34-9.05Q60.34-7.9 60.49-6.55 60.64-5.2 61.12-4.08 61.59-2.95 62.49-2.2 63.39-1.45 64.94-1.45L64.94-1.45Q66.04-1.45 66.94-2.2 67.84-2.95 68.57-4.05 69.29-5.15 69.87-6.45 70.44-7.75 70.89-8.85L70.89-8.85Q70.39-8.15 69.72-7.48 69.04-6.8 68.29-6.25 67.54-5.7 66.79-5.35 66.04-5 65.34-5L65.34-5Q64.64-5 64.24-5.45 63.84-5.9 63.62-6.58 63.39-7.25 63.34-7.95 63.29-8.65 63.29-9.2L63.29-9.2Q63.29-11 63.52-12.83 63.74-14.65 64.24-16.43 64.74-18.2 65.57-19.83 66.39-21.45 67.59-22.8L67.59-22.8Q67.69-22.95 67.84-23.08 67.99-23.2 68.12-23.25 68.24-23.3 68.24-23.23 68.24-23.15 68.04-22.8L68.04-22.8Q66.59-20.1 65.67-16.8 64.74-13.5 64.74-10.4L64.74-10.4Q64.74-10.1 64.77-9.43 64.79-8.75 64.92-8.05 65.04-7.35 65.32-6.83 65.59-6.3 66.04-6.3L66.04-6.3Q66.19-6.3 66.44-6.45L66.44-6.45Q68.54-7.5 69.99-9.35 71.44-11.2 72.39-13.48 73.34-15.75 73.77-18.18 74.19-20.6 74.24-22.8L74.24-22.8Q74.24-23.6 74.34-23.65 74.44-23.7 74.69-22.8L74.69-22.8Q74.99-21.35 74.99-20.2ZM65.44 9.4L65.44 9.4Q65.44 9.75 65.22 10.55 64.99 11.35 64.69 12.25 64.39 13.15 64.09 14 63.79 14.85 63.64 15.3L63.64 15.3Q63.24 16.4 63.04 17.48 62.84 18.55 62.59 19.7L62.59 19.7Q62.59 19.8 62.54 20 62.49 20.2 62.34 20.2L62.34 20.2Q62.24 20.2 62.19 19.95 62.14 19.7 62.14 19.6L62.14 19.6Q62.04 19.2 62.02 18.5 61.99 17.8 62.04 17.4L62.04 17.4Q62.19 16.15 62.59 14.73 62.99 13.3 63.47 12.08 63.94 10.85 64.44 10.05 64.94 9.25 65.29 9.25L65.29 9.25Q65.44 9.25 65.44 9.4ZM103.19-25.4L103.19-25.4Q102.49-22.7 101.46-19.8 100.44-16.9 99.34-14.3L99.34-14.3Q99.29-14.2 99.09-13.83 98.89-13.45 98.79-13.5L98.79-13.5Q98.64-13.5 98.66-13.93 98.69-14.35 98.74-14.5L98.74-14.5Q98.79-15.1 98.94-16 99.09-16.9 99.26-17.85 99.44-18.8 99.66-19.7 99.89-20.6 100.09-21.25L100.09-21.25Q100.19-21.45 100.39-22.25 100.59-23.05 100.81-24.18 101.04-25.3 101.29-26.65 101.54-28 101.74-29.3L101.74-29.3 101.14-29.45Q100.89-27.7 100.41-25.88 99.94-24.05 99.36-22.23 98.79-20.4 98.24-18.53 97.69-16.65 97.24-14.8L97.24-14.8Q96.84-13.05 96.64-11.15 96.44-9.25 96.49-7.33 96.54-5.4 96.94-3.58 97.34-1.75 98.14-0.2L98.14-0.2Q98.29 0.15 98.24 0.15L98.24 0.15Q98.14 0.15 98.09 0.1L98.09 0.1 97.99 0Q96.59-1.65 95.91-3.58 95.24-5.5 95.06-7.55 94.89-9.6 95.14-11.7 95.39-13.8 95.84-15.8L95.84-15.8Q96.69-19.5 97.84-22.93 98.99-26.35 99.79-29.65L99.79-29.65Q96.79-30.15 94.16-30.58 91.54-31 89.29-30.55L89.29-30.55Q89.14-30.55 89.14-30.6L89.14-30.6Q89.14-30.7 89.21-30.73 89.29-30.75 89.34-30.8L89.34-30.8Q91.04-31.8 92.96-31.9 94.89-32 96.96-31.73 99.04-31.45 101.21-31.03 103.39-30.6 105.59-30.55L105.59-30.55Q106.94-30.5 108.41-30.78 109.89-31.05 111.26-31.63 112.64-32.2 113.76-33.15 114.89-34.1 115.59-35.4L115.59-35.4Q115.69-35.65 115.79-35.65L115.79-35.65 115.79-35.5 115.79-35.4Q115.24-33.5 114.09-32.27 112.94-31.05 111.46-30.3 109.99-29.55 108.31-29.28 106.64-29 105.04-29.05L105.04-29.05Q105.29-27.5 105.06-25.45 104.84-23.4 104.39-21.3 103.94-19.2 103.44-17.32 102.94-15.45 102.64-14.3L102.64-14.3Q102.04-11.9 101.24-9.4 100.44-6.9 99.79-5L99.79-5Q99.69-4.75 99.56-4.55 99.44-4.35 99.34-4.4L99.34-4.4Q99.24-4.45 99.26-4.67 99.29-4.9 99.29-5.15L99.29-5.15Q99.44-8.9 100.39-12.65 101.34-16.4 102.44-20.2L102.44-20.2Q103.04-22.3 103.61-24.45 104.19-26.6 104.44-29.05L104.44-29.05Q104.19-29.1 104.01-29.1 103.84-29.1 103.59-29.1L103.59-29.1Q103.59-28.1 103.51-27.15 103.44-26.2 103.19-25.4ZM104.54-36.05L104.54-36.05Q106.49-35.8 108.49-35.65 110.49-35.5 111.94-35.5L111.94-35.5Q112.44-35.5 112.44-35.35L112.44-35.35Q112.44-35.15 111.94-35L111.94-35Q109.39-34 106.56-34.1 103.74-34.2 100.84-34.65L100.84-34.65Q99.09-34.9 97.24-35.15 95.39-35.4 93.24-35.15L93.24-35.15Q93.04-35.1 93.04-35.2L93.04-35.2Q93.04-35.3 93.14-35.35 93.24-35.4 93.34-35.5L93.34-35.5Q94.29-36.2 95.79-36.43 97.29-36.65 98.91-36.63 100.54-36.6 102.04-36.4 103.54-36.2 104.54-36.05ZM97.04-34.5L97.04-34.5Q99.14-34.2 101.31-33.75 103.49-33.3 105.54-32.75L105.54-32.75Q105.64-32.65 105.96-32.58 106.29-32.5 106.29-32.35L106.29-32.35Q106.29-32.25 105.99-32.2 105.69-32.15 105.54-32.05L105.54-32.05Q105.09-31.95 104.41-31.95 103.74-31.95 103.01-31.98 102.29-32 101.59-32.05 100.89-32.1 100.39-32.2L100.39-32.2Q100.04-32.25 98.66-32.4 97.29-32.55 95.64-32.6 93.99-32.65 92.46-32.58 90.94-32.5 90.29-32.15L90.29-32.15Q90.09-32.05 90.04-32.05L90.04-32.05 89.99-32.05Q89.99-32.25 90.19-32.45L90.19-32.45Q90.69-33.1 91.56-33.55 92.44-34 93.39-34.25 94.34-34.5 95.31-34.55 96.29-34.6 97.04-34.5ZM98.69-3.55L98.69-3.55Q98.84-2.7 99.06-1.85 99.29-1 99.64-0.2L99.64-0.2Q99.84 0.2 99.69 0.2L99.69 0.2Q99.59 0.2 99.39 0.1L99.39 0.1Q99.29 0.05 99.24-0.05L99.24-0.05Q98.59-0.8 98.21-1.45 97.84-2.1 97.59-3.55L97.59-3.55Q97.49-4.1 97.46-4.95 97.44-5.8 97.49-6.6 97.54-7.4 97.64-7.95 97.74-8.5 97.94-8.5L97.94-8.5Q97.99-8.5 98.06-8.25 98.14-8 98.19-7.68 98.24-7.35 98.29-7.03 98.34-6.7 98.34-6.6L98.34-6.6Q98.44-5.75 98.51-5 98.59-4.25 98.69-3.55ZM113.19-34.85L113.19-34.85Q114.29-35.8 115.04-36.9L115.04-36.9Q115.14-37.1 115.24-37.1L115.24-37.1Q115.29-37.1 115.29-36.75L115.29-36.75Q115.29-36.55 115.24-36.4L115.24-36.4Q115.04-35.55 114.79-35.05 114.54-34.55 113.59-33.85L113.59-33.85Q113.24-33.55 112.64-33.27 112.04-33 111.49-32.8 110.94-32.6 110.51-32.58 110.09-32.55 110.04-32.75L110.04-32.75Q110.04-32.8 110.19-32.93 110.34-33.05 110.56-33.2 110.79-33.35 110.99-33.48 111.19-33.6 111.29-33.65L111.29-33.65Q111.79-33.9 112.26-34.2 112.74-34.5 113.19-34.85ZM123.69-20.4L123.69-20.4Q124.09-19.9 124.31-19.15 124.54-18.4 124.49-17.53 124.44-16.65 124.09-15.7 123.74-14.75 122.99-13.85L122.99-13.85Q121.54-12.15 119.81-11.23 118.09-10.3 116.69-10.3L116.69-10.3Q115.84-10.3 116.69-10.6L116.69-10.6Q117.14-10.75 117.76-11.08 118.39-11.4 119.09-11.88 119.79-12.35 120.51-13 121.24-13.65 121.84-14.5L121.84-14.5Q122.84-15.9 123.01-17.23 123.19-18.55 122.49-19.25L122.49-19.25Q121.89-19.85 121.09-19.93 120.29-20 118.69-19.05L118.69-19.05Q117.24-18.2 116.09-16.95 114.94-15.7 113.94-14.3L113.94-14.3Q113.39-13.6 113.21-13.6 113.04-13.6 113.34-14.5L113.34-14.5Q113.94-16.25 115.01-17.75 116.09-19.25 117.59-20.3L117.59-20.3Q118.69-21.05 119.61-21.35 120.54-21.65 121.31-21.6 122.09-21.55 122.69-21.23 123.29-20.9 123.69-20.4ZM126.39-16.9L126.39-16.9Q126.19-15.7 125.76-14.88 125.34-14.05 124.81-13.48 124.29-12.9 123.76-12.55 123.24-12.2 122.84-11.9L122.84-11.9Q122.64-11.75 122.54-11.85 122.44-11.95 122.69-12.2L122.69-12.2Q123.59-12.95 124.51-14.23 125.44-15.5 125.49-17.05L125.49-17.05Q125.49-19.7 124.19-21.1L124.19-21.1Q122.89-22.5 120.94-22.33 118.99-22.15 116.89-20.8L116.89-20.8Q115.54-19.95 114.51-18.82 113.49-17.7 112.74-16.43 111.99-15.15 111.51-13.8 111.04-12.45 110.84-11.1L110.84-11.1Q110.64-9.8 110.46-8.3 110.29-6.8 110.46-5.35 110.64-3.9 111.39-2.58 112.14-1.25 113.74-0.3L113.74-0.3Q113.99-0.15 114.26-0.1 114.54-0.05 114.54 0L114.54 0Q114.54 0.1 114.29 0.13 114.04 0.15 113.74 0.05L113.74 0.05Q112.49-0.2 111.61-0.98 110.74-1.75 110.19-2.75 109.64-3.75 109.34-4.85 109.04-5.95 108.99-6.85L108.99-6.85Q108.69-10.8 110.09-14.65L110.09-14.65Q110.39-15.45 110.86-16.45 111.34-17.45 112.04-18.48 112.74-19.5 113.69-20.48 114.64-21.45 115.84-22.2L115.84-22.2Q116.99-22.9 118.24-23.25 119.49-23.6 120.74-23.58 121.99-23.55 123.09-23.13 124.19-22.7 125.04-21.85L125.04-21.85Q125.79-21.05 126.21-19.8 126.64-18.55 126.39-16.9ZM121.84-18.7L121.84-18.7Q122.44-18 121.99-16.53 121.54-15.05 119.89-13.55L119.89-13.55Q118.99-12.7 118.14-12.18 117.29-11.65 115.99-11.25L115.99-11.25Q115.44-9.35 115.29-7.5 115.14-5.65 115.39-4.5L115.39-4.5Q115.44-4.05 115.71-3.63 115.99-3.2 116.51-2.98 117.04-2.75 117.89-2.8 118.74-2.85 119.99-3.35L119.99-3.35Q120.34-3.5 120.41-3.43 120.49-3.35 120.09-3.1L120.09-3.1Q119.19-2.4 118.19-2.13 117.19-1.85 116.31-1.95 115.44-2.05 114.81-2.55 114.19-3.05 113.99-3.9L113.99-3.9Q113.59-5.65 113.64-7.55 113.69-9.45 114.21-11.3 114.74-13.15 115.71-14.78 116.69-16.4 118.14-17.55L118.14-17.55Q120.84-19.7 121.84-18.7ZM121.34-2.75L121.34-2.75Q120.99-2.25 120.46-1.78 119.94-1.3 119.26-0.93 118.59-0.55 117.86-0.3 117.14-0.05 116.39-0.05L116.39-0.05Q115.09-0.05 113.96-0.63 112.84-1.2 112.24-2.95L112.24-2.95Q112.14-3.15 112.14-3.33 112.14-3.5 112.24-3.5L112.24-3.5Q112.44-3.6 112.64-3.38 112.84-3.15 113.04-2.9L113.04-2.9Q113.59-2.25 114.46-1.75 115.34-1.25 116.14-1.25L116.14-1.25Q117.64-1.25 118.74-1.7 119.84-2.15 120.84-2.9L120.84-2.9Q121.09-3.05 121.41-3.2 121.74-3.35 121.34-2.75ZM120.64-17.35L120.64-17.35Q120.44-17.75 119.19-16.7L119.19-16.7Q118.04-15.8 117.36-14.63 116.69-13.45 116.19-12.05L116.19-12.05Q117.14-12.5 117.94-13.08 118.74-13.65 119.44-14.2L119.44-14.2Q120.19-14.85 120.54-15.9 120.89-16.95 120.64-17.35ZM132.98-10.5L132.98-10.5Q133.18-11.75 133.66-13.03 134.13-14.3 134.78-15.38 135.43-16.45 136.23-17.18 137.03-17.9 137.93-18.15L137.93-18.15Q139.08-18.4 139.66-18.25 140.23-18.1 140.33-17.8L140.33-17.8Q140.48-17.35 140.33-16.9 140.18-16.45 139.91-16.1 139.63-15.75 139.31-15.48 138.98-15.2 138.78-15.15L138.78-15.15Q138.53-15.05 138.61-14.9 138.68-14.75 139.08-14.85L139.08-14.85Q139.53-14.9 139.98-15.2 140.43-15.5 140.81-15.95 141.18-16.4 141.38-16.93 141.58-17.45 141.53-18L141.53-18Q141.43-18.55 141.01-18.95 140.58-19.35 139.98-19.55 139.38-19.75 138.63-19.75 137.88-19.75 137.23-19.5L137.23-19.5Q135.93-19 134.96-18.03 133.98-17.05 133.26-15.78 132.53-14.5 132.08-13.03 131.63-11.55 131.33-10.05L131.33-10.05Q130.93-8.2 131.08-6.43 131.23-4.65 132.23-3.65L132.23-3.65Q132.73-3.15 133.53-2.95 134.33-2.75 135.23-2.78 136.13-2.8 137.06-3.1 137.98-3.4 138.78-3.9L138.78-3.9Q138.98-4 139.11-4.1 139.23-4.2 139.13-4.25L139.13-4.25Q139.08-4.3 138.73-4.2L138.73-4.2Q136.28-3.6 134.93-3.7 133.58-3.8 133.01-4.6 132.43-5.4 132.51-6.88 132.58-8.35 132.98-10.5ZM133.58-0.2L133.58-0.2Q131.98-0.3 130.53-1.23 129.08-2.15 128.53-3.55L128.53-3.55Q127.98-5 127.83-6.33 127.68-7.65 127.78-8.9L127.78-8.9Q127.98-11.5 128.81-14.13 129.63-16.75 131.38-18.85L131.38-18.85Q132.48-20.15 133.58-21.03 134.68-21.9 136.48-22.4L136.48-22.4Q137.38-22.65 138.43-22.7 139.48-22.75 140.51-22.48 141.53-22.2 142.43-21.55 143.33-20.9 144.03-19.8L144.03-19.8Q144.18-19.3 144.33-19.3L144.33-19.3Q144.48-19.45 144.33-19.85L144.33-19.85Q144.03-21.45 142.71-22.4 141.38-23.35 139.61-23.6 137.83-23.85 135.93-23.43 134.03-23 132.58-21.8L132.58-21.8Q130.63-20.25 129.31-18.23 127.98-16.2 127.23-13.95 126.48-11.7 126.33-9.3 126.18-6.9 126.68-4.6L126.68-4.6Q126.98-3.1 127.71-2.18 128.43-1.25 129.38-0.73 130.33-0.2 131.43-0.05 132.53 0.1 133.63 0.05L133.63 0.05Q133.93 0.05 134.01 0 134.08-0.05 134.08-0.1L134.08-0.1Q134.08-0.2 133.58-0.2ZM129.68-12.25L129.68-12.25Q129.68-12.2 129.66-12 129.63-11.8 129.61-11.6 129.58-11.4 129.58-11.23 129.58-11.05 129.68-11.05L129.68-11.05Q129.78-11.05 130.01-11.55 130.23-12.05 130.23-12.1L130.23-12.1Q131.53-15.1 133.33-17.4L133.33-17.4Q133.48-17.55 133.93-18.07 134.38-18.6 135.13-19.15 135.88-19.7 136.93-20.1 137.98-20.5 139.28-20.35L139.28-20.35Q140.63-20.2 141.48-19.35 142.33-18.5 142.08-17.35L142.08-17.35Q141.88-16.25 141.31-15.5 140.73-14.75 140.18-14.5L140.18-14.5Q139.78-14.35 139.96-14.3 140.13-14.25 140.23-14.25L140.23-14.25Q140.83-14.3 141.51-14.73 142.18-15.15 142.68-15.83 143.18-16.5 143.38-17.35 143.58-18.2 143.23-19.2L143.23-19.2Q142.83-20.25 142.08-20.88 141.33-21.5 140.43-21.78 139.53-22.05 138.61-22.05 137.68-22.05 137.03-21.9L137.03-21.9Q135.13-21.4 133.83-20.45 132.53-19.5 131.71-18.23 130.88-16.95 130.43-15.43 129.98-13.9 129.68-12.25ZM139.78-3.2L139.78-3.2Q139.98-3.5 139.96-3.6 139.93-3.7 139.83-3.68 139.73-3.65 139.56-3.53 139.38-3.4 139.28-3.35L139.28-3.35Q138.28-2.65 137.06-2.23 135.83-1.8 134.33-1.8L134.33-1.8Q133.58-1.8 132.56-2.33 131.53-2.85 130.98-3.4L130.98-3.4Q130.78-3.65 130.56-3.88 130.33-4.1 130.18-4.05L130.18-4.05Q129.98-3.85 130.18-3.5L130.18-3.5Q130.93-1.75 132.08-1.25 133.23-0.75 134.53-0.75L134.53-0.75Q135.28-0.75 136.06-0.95 136.83-1.15 137.56-1.48 138.28-1.8 138.86-2.25 139.43-2.7 139.78-3.2ZM152.93-26.35L152.93-26.35Q152.08-23.4 151.01-20.3 149.93-17.2 148.78-14.45L148.78-14.45Q148.73-14.3 148.51-13.9 148.28-13.5 148.13-13.55L148.13-13.55Q148.03-13.55 148.01-14.03 147.98-14.5 148.03-14.75L148.03-14.75Q148.13-15.4 148.33-16.35 148.53-17.3 148.76-18.3 148.98-19.3 149.21-20.25 149.43-21.2 149.68-21.9L149.68-21.9Q149.78-22.2 150.03-23.2 150.28-24.2 150.58-25.6 150.88-27 151.21-28.6 151.53-30.2 151.76-31.7 151.98-33.2 152.08-34.45 152.18-35.7 152.03-36.35L152.03-36.35Q151.88-36.85 152.03-36.85L152.03-36.85Q152.13-36.85 152.21-36.73 152.28-36.6 152.38-36.5L152.38-36.5Q152.88-35.6 153.16-34.3 153.43-33 153.48-31.6 153.53-30.2 153.38-28.8 153.23-27.4 152.93-26.35ZM150.93-37.9L150.93-37.9Q151.58-35.35 151.26-32.55 150.93-29.75 150.13-26.85 149.33-23.95 148.33-20.98 147.33-18 146.63-15L146.63-15Q146.18-13.1 145.91-11.08 145.63-9.05 145.63-7.08 145.63-5.1 145.96-3.28 146.28-1.45 147.08 0L147.08 0Q147.18 0.2 147.16 0.3 147.13 0.4 146.83 0L146.83 0Q145.53-1.5 144.91-3.4 144.28-5.3 144.18-7.4 144.08-9.5 144.38-11.75 144.68-14 145.23-16.15L145.23-16.15Q145.98-19.15 146.91-22.05 147.83-24.95 148.66-27.7 149.48-30.45 150.03-33.02 150.58-35.6 150.58-38L150.58-38Q150.58-38.25 150.63-38.25L150.63-38.25Q150.83-38.25 150.93-37.9ZM160.03 0L160.03 0Q158.18-0.85 157.08-2.65 155.98-4.45 155.73-6.8L155.73-6.8Q155.48-9.1 155.73-10.63 155.98-12.15 156.33-13.65L156.33-13.65Q156.38-13.85 156.53-14.33 156.68-14.8 156.76-15.3 156.83-15.8 156.76-16.18 156.68-16.55 156.33-16.65L156.33-16.65Q155.63-16.8 154.73-16.03 153.83-15.25 153.01-14.1 152.18-12.95 151.51-11.73 150.83-10.5 150.63-9.8L150.63-9.8Q150.18-8.35 149.68-7.05 149.18-5.75 148.78-4.45L148.78-4.45Q148.63-3.9 148.53-3.95L148.53-3.95Q148.43-3.95 148.41-4.15 148.38-4.35 148.38-4.6L148.38-4.6Q148.38-6.6 148.68-8.63 148.98-10.65 149.51-12.65 150.03-14.65 150.68-16.65 151.33-18.65 151.93-20.7L151.93-20.7Q152.73-23.25 153.46-25.9 154.18-28.55 154.43-31.6L154.43-31.6Q154.43-31.85 154.43-31.88 154.43-31.9 154.48-31.9L154.48-31.9Q154.63-31.9 154.73-31.5L154.73-31.5Q154.98-30.85 154.96-29.68 154.93-28.5 154.76-27.1 154.58-25.7 154.26-24.25 153.93-22.8 153.58-21.65L153.58-21.65Q154.53-22.65 155.83-23.2 157.13-23.75 158.93-23.5L158.93-23.5Q160.98-23.2 162.08-22.03 163.18-20.85 163.58-19.2 163.98-17.55 163.81-15.68 163.63-13.8 163.18-12.05L163.18-12.05Q162.78-10.7 162.43-9.68 162.08-8.65 161.73-7.8 161.38-6.95 161.13-6.2 160.88-5.45 160.73-4.6L160.73-4.6Q160.63-4.05 160.53-4.05L160.53-4.05Q160.43-4.05 160.36-4.25 160.28-4.45 160.23-4.65L160.23-4.65Q159.93-5.75 160.21-7.35 160.48-8.95 160.93-10.73 161.38-12.5 161.76-14.33 162.13-16.15 162.06-17.7 161.98-19.25 161.23-20.43 160.48-21.6 158.68-22.05L158.68-22.05Q157.93-22.25 157.06-22.18 156.18-22.1 155.41-21.78 154.63-21.45 154.03-20.85 153.43-20.25 153.23-19.45L153.23-19.45Q154.18-20.45 155.68-21.1 157.18-21.75 158.58-21.3L158.58-21.3Q159.88-20.9 160.43-19.85 160.98-18.8 161.08-18L161.08-18Q161.28-16.25 160.86-14.83 160.43-13.4 159.88-12.1L159.88-12.1Q159.78-11.95 159.58-11.63 159.38-11.3 159.28-11.35L159.28-11.35Q159.18-11.35 159.18-11.75 159.18-12.15 159.23-12.35L159.23-12.35Q159.38-12.85 159.48-13.93 159.58-15 159.56-16.15 159.53-17.3 159.26-18.3 158.98-19.3 158.38-19.65L158.38-19.65Q157.68-20.05 156.68-19.88 155.68-19.7 154.53-18.65L154.53-18.65Q153.53-17.75 152.83-16.57 152.13-15.4 151.63-13.5L151.63-13.5Q151.93-14.05 152.58-15.05 153.23-16.05 154.06-16.95 154.88-17.85 155.81-18.38 156.73-18.9 157.58-18.5L157.58-18.5Q158.13-18.2 158.31-17.48 158.48-16.75 158.41-15.85 158.33-14.95 158.13-14.1 157.93-13.25 157.78-12.75L157.78-12.75Q157.23-11.25 157.03-9.47 156.83-7.7 157.06-6 157.28-4.3 158.03-2.8 158.78-1.3 160.23-0.25L160.23-0.25Q160.68 0 160.41 0 160.13 0 160.03 0ZM161.33-0.4L161.33-0.4Q160.63-0.8 160.01-1.25 159.38-1.7 158.78-3L158.78-3Q158.53-3.5 158.41-4.35 158.28-5.2 158.26-5.98 158.23-6.75 158.33-7.28 158.43-7.8 158.58-7.75L158.58-7.75Q158.68-7.75 158.78-7.53 158.88-7.3 158.93-7 158.98-6.7 159.03-6.43 159.08-6.15 159.08-6.05L159.08-6.05Q159.28-4.95 159.43-4.42 159.58-3.9 159.83-3.3L159.83-3.3Q160.23-2.5 160.63-1.85 161.03-1.2 161.63-0.65L161.63-0.65Q161.88-0.45 161.76-0.35 161.63-0.25 161.33-0.4ZM148.68 0L148.68 0Q148.73 0 148.61 0.05 148.48 0.1 148.13 0L148.13 0Q147.73-0.2 147.31-0.75 146.88-1.3 146.63-2.9L146.63-2.9Q146.53-3.55 146.53-4.48 146.53-5.4 146.61-6.23 146.68-7.05 146.83-7.65 146.98-8.25 147.18-8.2L147.18-8.2Q147.23-8.2 147.28-7.9 147.33-7.6 147.38-7.23 147.43-6.85 147.43-6.48 147.43-6.1 147.43-5.95L147.43-5.95Q147.48-4.85 147.56-4.33 147.63-3.8 147.78-2.9L147.78-2.9Q147.93-1.95 148.13-1.18 148.33-0.4 148.68 0Z" opacity="1" transform="matrix(1,0,0,1,0,0)" fill="#1f299c" class="wordmark-text-0" data-fill-palette-color="quaternary" id="text-0"></path></svg></g></svg></g><g transform="matrix(1,0,0,1,0,94.43568915938039)"><svg viewBox="0 0 213.1584412271571 25.208237083430813" height="25.208237083430813" width="213.1584412271571"><g transform="matrix(1,0,0,1,0,0)"><svg width="213.1584412271571" viewBox="3.56 -35.99 414.3 49" height="25.208237083430813" data-palette-color="#1f299c"><path d="M37.45-16.82L37.45-16.82 37.45-16.36Q37.4-14.31 37.02-12.11 36.65-9.91 35.96-7.71 35.28-5.52 34.33-3.37 33.37-1.22 32.19 0.74 31.01 2.71 29.64 4.43 28.27 6.15 26.76 7.47L26.76 7.47 23.12 5.37Q23.97 3.93 24.67 2.23 25.37 0.54 25.93-1.32 26.49-3.17 26.89-5.13 27.29-7.08 27.56-9.01 27.83-10.94 27.97-12.81 28.1-14.67 28.1-16.36L28.1-16.36Q28.1-17.68 28.09-19.35 28.08-21.02 27.89-22.75 27.71-24.49 27.29-26.14 26.88-27.78 26.06-29.08 25.24-30.37 23.96-31.15 22.68-31.93 20.78-31.93L20.78-31.93Q19.09-31.93 17.88-31.36 16.67-30.79 15.83-29.82 14.99-28.86 14.49-27.59 13.99-26.32 13.71-24.91 13.43-23.51 13.34-22.08 13.26-20.65 13.26-19.38L13.26-19.38 13.26-12.57 23.78-12.57 23.78-8.54 13.26-8.54 13.26 0 3.56 0 3.56-17.87Q3.56-21.7 4.79-25 6.01-28.3 8.24-30.73 10.47-33.15 13.61-34.53 16.75-35.91 20.61-35.91L20.61-35.91Q23.22-35.91 25.5-35.17 27.78-34.42 29.66-33.12 31.54-31.81 33.02-30.02 34.5-28.22 35.49-26.1 36.47-23.97 36.99-21.61 37.5-19.24 37.45-16.82ZM67.21-9.01L67.21-9.01Q67.21-7.15 66.67-5.71 66.14-4.27 65.21-3.21 64.28-2.15 63.01-1.43 61.74-0.71 60.29-0.27 58.84 0.17 57.25 0.37 55.66 0.56 54.1 0.56L54.1 0.56Q52 0.56 50.39 0.29 48.78 0.02 47.31-0.57 45.85-1.17 44.39-2.12 42.94-3.08 41.16-4.44L41.16-4.44 45.97-8.37Q46.63-7.13 47.71-6.12 48.8-5.1 49.97-4.37 51.14-3.64 52.24-3.25 53.34-2.86 54.03-2.86L54.03-2.86Q54.59-2.86 55.3-2.89 56-2.93 56.74-3.04 57.47-3.15 58.18-3.37 58.88-3.59 59.43-3.97 59.98-4.35 60.31-4.92 60.64-5.49 60.64-6.3L60.64-6.3Q60.64-7.13 60.21-7.75 59.79-8.37 59.1-8.84 58.42-9.3 57.54-9.62 56.66-9.94 55.77-10.18 54.88-10.42 54.05-10.61 53.22-10.79 52.61-10.96L52.61-10.96Q51.49-11.28 50.24-11.61 49-11.94 47.78-12.37 46.56-12.79 45.44-13.38 44.33-13.96 43.49-14.78 42.65-15.6 42.15-16.71 41.65-17.82 41.65-19.31L41.65-19.31Q41.65-22.05 42.73-23.89 43.82-25.73 45.6-26.84 47.39-27.95 49.66-28.42 51.93-28.88 54.27-28.88L54.27-28.88Q55.88-28.88 57.66-28.55 59.45-28.22 61.13-27.58 62.81-26.93 64.28-26 65.74-25.07 66.72-23.88L66.72-23.88 61.91-19.92Q61.37-21.39 60.51-22.44 59.64-23.49 58.63-24.16 57.61-24.83 56.55-25.15 55.49-25.46 54.59-25.46L54.59-25.46Q53.71-25.46 52.61-25.39 51.51-25.32 50.55-24.98 49.58-24.63 48.91-23.94 48.24-23.24 48.24-22.02L48.24-22.02Q48.24-21.14 48.64-20.52 49.05-19.9 49.7-19.45 50.36-18.99 51.21-18.69 52.05-18.38 52.93-18.15 53.81-17.92 54.64-17.75 55.47-17.58 56.13-17.38L56.13-17.38Q57.25-17.07 58.51-16.74 59.76-16.41 60.98-15.98 62.2-15.55 63.34-14.98 64.48-14.4 65.33-13.57 66.18-12.74 66.7-11.63 67.21-10.52 67.21-9.01ZM112.35-4.49L112.35 0 87.1 0 87.1-35.16 112.35-35.16 112.35-30.66 96.79-30.66 96.79-19.8 108.81-19.8 108.81-15.33 96.79-15.33 96.79-4.49 112.35-4.49ZM145.16-28.2L145.16 0 136.9 0 136.9-3.37Q135.44-1.37 133.38-0.4 131.31 0.56 128.85 0.56L128.85 0.56Q125.62 0.56 123.09-0.59 120.55-1.73 118.79-3.72 117.03-5.71 116.1-8.4 115.18-11.08 115.18-14.16L115.18-14.16Q115.18-17.24 116.1-19.92 117.03-22.61 118.79-24.6 120.55-26.59 123.09-27.73 125.62-28.88 128.85-28.88L128.85-28.88Q130.48-28.88 131.96-28.39 133.44-27.91 134.67-27.01 135.9-26.12 136.84-24.87 137.78-23.61 138.32-22.07L138.32-22.07 141.98-28.2 145.16-28.2ZM136.86-14.16L136.86-14.16Q136.86-15.26 136.75-16.48 136.64-17.7 136.37-18.9 136.1-20.09 135.62-21.18 135.15-22.27 134.4-23.11 133.66-23.95 132.61-24.44 131.56-24.93 130.17-24.93L130.17-24.93Q128.77-24.93 127.75-24.43 126.72-23.93 125.99-23.08 125.26-22.24 124.78-21.14 124.31-20.04 124.04-18.85 123.77-17.65 123.66-16.44 123.55-15.23 123.55-14.16L123.55-14.16Q123.55-13.09 123.66-11.87 123.77-10.64 124.04-9.45 124.31-8.25 124.78-7.15 125.26-6.05 125.99-5.21 126.72-4.37 127.75-3.87 128.77-3.37 130.17-3.37L130.17-3.37Q131.44-3.37 132.42-3.89 133.41-4.42 134.16-5.3 134.9-6.18 135.41-7.3 135.93-8.42 136.24-9.62 136.56-10.82 136.71-12 136.86-13.18 136.86-14.16ZM176.31-9.01L176.31-9.01Q176.31-7.15 175.77-5.71 175.23-4.27 174.3-3.21 173.38-2.15 172.11-1.43 170.84-0.71 169.38-0.27 167.93 0.17 166.34 0.37 164.76 0.56 163.2 0.56L163.2 0.56Q161.1 0.56 159.48 0.29 157.87 0.02 156.41-0.57 154.94-1.17 153.49-2.12 152.04-3.08 150.26-4.44L150.26-4.44 155.07-8.37Q155.72-7.13 156.81-6.12 157.9-5.1 159.07-4.37 160.24-3.64 161.34-3.25 162.44-2.86 163.12-2.86L163.12-2.86Q163.68-2.86 164.39-2.89 165.1-2.93 165.83-3.04 166.56-3.15 167.27-3.37 167.98-3.59 168.53-3.97 169.08-4.35 169.41-4.92 169.74-5.49 169.74-6.3L169.74-6.3Q169.74-7.13 169.31-7.75 168.88-8.37 168.2-8.84 167.52-9.3 166.64-9.62 165.76-9.94 164.87-10.18 163.98-10.42 163.15-10.61 162.32-10.79 161.71-10.96L161.71-10.96Q160.58-11.28 159.34-11.61 158.09-11.94 156.87-12.37 155.65-12.79 154.54-13.38 153.43-13.96 152.59-14.78 151.75-15.6 151.24-16.71 150.74-17.82 150.74-19.31L150.74-19.31Q150.74-22.05 151.83-23.89 152.92-25.73 154.7-26.84 156.48-27.95 158.75-28.42 161.02-28.88 163.37-28.88L163.37-28.88Q164.98-28.88 166.76-28.55 168.54-28.22 170.23-27.58 171.91-26.93 173.38-26 174.84-25.07 175.82-23.88L175.82-23.88 171.01-19.92Q170.47-21.39 169.6-22.44 168.74-23.49 167.72-24.16 166.71-24.83 165.65-25.15 164.59-25.46 163.68-25.46L163.68-25.46Q162.8-25.46 161.71-25.39 160.61-25.32 159.64-24.98 158.68-24.63 158.01-23.94 157.34-23.24 157.34-22.02L157.34-22.02Q157.34-21.14 157.74-20.52 158.14-19.9 158.8-19.45 159.46-18.99 160.3-18.69 161.14-18.38 162.02-18.15 162.9-17.92 163.73-17.75 164.56-17.58 165.22-17.38L165.22-17.38Q166.34-17.07 167.6-16.74 168.86-16.41 170.08-15.98 171.3-15.55 172.44-14.98 173.57-14.4 174.43-13.57 175.28-12.74 175.79-11.63 176.31-10.52 176.31-9.01ZM201.03-28.2L206.75-28.2 196.49-3.39Q194.74 0.85 192.58 5.02 190.41 9.18 187.9 13.01L187.9 13.01 184.68 11.06Q185.29 9.96 186.12 8.52 186.95 7.08 187.75 5.54 188.56 4 189.24 2.5 189.93 1 190.29-0.24L190.29-0.24 177.96-28.2 186.22-28.2 194.59-9.13 201.03-28.2ZM258.35-16.82L258.35-16.82 258.35-16.36Q258.31-14.31 257.93-12.11 257.55-9.91 256.86-7.71 256.18-5.52 255.23-3.37 254.28-1.22 253.09 0.74 251.91 2.71 250.54 4.43 249.17 6.15 247.66 7.47L247.66 7.47 244.02 5.37Q244.88 3.93 245.57 2.23 246.27 0.54 246.83-1.32 247.39-3.17 247.79-5.13 248.2-7.08 248.47-9.01 248.73-10.94 248.87-12.81 249-14.67 249-16.36L249-16.36Q249-17.68 248.99-19.35 248.98-21.02 248.8-22.75 248.61-24.49 248.2-26.14 247.78-27.78 246.96-29.08 246.15-30.37 244.87-31.15 243.58-31.93 241.68-31.93L241.68-31.93Q239.99-31.93 238.79-31.36 237.58-30.79 236.74-29.82 235.89-28.86 235.39-27.59 234.89-26.32 234.61-24.91 234.33-23.51 234.25-22.08 234.16-20.65 234.16-19.38L234.16-19.38 234.16-12.57 244.68-12.57 244.68-8.54 234.16-8.54 234.16 0 224.47 0 224.47-17.87Q224.47-21.7 225.69-25 226.91-28.3 229.14-30.73 231.38-33.15 234.51-34.53 237.65-35.91 241.51-35.91L241.51-35.91Q244.12-35.91 246.4-35.17 248.69-34.42 250.57-33.12 252.45-31.81 253.92-30.02 255.4-28.22 256.39-26.1 257.38-23.97 257.89-21.61 258.4-19.24 258.35-16.82ZM288.11-9.01L288.11-9.01Q288.11-7.15 287.58-5.71 287.04-4.27 286.11-3.21 285.18-2.15 283.91-1.43 282.64-0.71 281.19-0.27 279.74 0.17 278.15 0.37 276.56 0.56 275 0.56L275 0.56Q272.9 0.56 271.29 0.29 269.68 0.02 268.21-0.57 266.75-1.17 265.3-2.12 263.84-3.08 262.06-4.44L262.06-4.44 266.87-8.37Q267.53-7.13 268.62-6.12 269.7-5.1 270.88-4.37 272.05-3.64 273.15-3.25 274.25-2.86 274.93-2.86L274.93-2.86Q275.49-2.86 276.2-2.89 276.91-2.93 277.64-3.04 278.37-3.15 279.08-3.37 279.79-3.59 280.34-3.97 280.89-4.35 281.22-4.92 281.54-5.49 281.54-6.3L281.54-6.3Q281.54-7.13 281.12-7.75 280.69-8.37 280.01-8.84 279.32-9.3 278.44-9.62 277.57-9.94 276.67-10.18 275.78-10.42 274.95-10.61 274.12-10.79 273.51-10.96L273.51-10.96Q272.39-11.28 271.14-11.61 269.9-11.94 268.68-12.37 267.46-12.79 266.35-13.38 265.24-13.96 264.39-14.78 263.55-15.6 263.05-16.71 262.55-17.82 262.55-19.31L262.55-19.31Q262.55-22.05 263.64-23.89 264.72-25.73 266.51-26.84 268.29-27.95 270.56-28.42 272.83-28.88 275.17-28.88L275.17-28.88Q276.78-28.88 278.57-28.55 280.35-28.22 282.03-27.58 283.72-26.93 285.18-26 286.65-25.07 287.62-23.88L287.62-23.88 282.81-19.92Q282.28-21.39 281.41-22.44 280.54-23.49 279.53-24.16 278.52-24.83 277.46-25.15 276.39-25.46 275.49-25.46L275.49-25.46Q274.61-25.46 273.51-25.39 272.41-25.32 271.45-24.98 270.49-24.63 269.81-23.94 269.14-23.24 269.14-22.02L269.14-22.02Q269.14-21.14 269.55-20.52 269.95-19.9 270.61-19.45 271.27-18.99 272.11-18.69 272.95-18.38 273.83-18.15 274.71-17.92 275.54-17.75 276.37-17.58 277.03-17.38L277.03-17.38Q278.15-17.07 279.41-16.74 280.67-16.41 281.89-15.98 283.11-15.55 284.24-14.98 285.38-14.4 286.23-13.57 287.09-12.74 287.6-11.63 288.11-10.52 288.11-9.01ZM341.48-16.82L341.48-16.82 341.48-16.36Q341.43-14.31 341.05-12.11 340.67-9.91 339.99-7.71 339.3-5.52 338.35-3.37 337.4-1.22 336.22 0.74 335.03 2.71 333.66 4.43 332.3 6.15 330.78 7.47L330.78 7.47 327.15 5.37Q328 3.93 328.7 2.23 329.39 0.54 329.95-1.32 330.51-3.17 330.92-5.13 331.32-7.08 331.59-9.01 331.86-10.94 331.99-12.81 332.13-14.67 332.13-16.36L332.13-16.36Q332.13-17.68 332.11-19.35 332.1-21.02 331.92-22.75 331.74-24.49 331.32-26.14 330.91-27.78 330.09-29.08 329.27-30.37 327.99-31.15 326.71-31.93 324.8-31.93L324.8-31.93Q323.12-31.93 321.91-31.36 320.7-30.79 319.86-29.82 319.02-28.86 318.51-27.59 318.01-26.32 317.73-24.91 317.45-23.51 317.37-22.08 317.28-20.65 317.28-19.38L317.28-19.38 317.28-12.57 327.8-12.57 327.8-8.54 317.28-8.54 317.28 0 307.59 0 307.59-17.87Q307.59-21.7 308.81-25 310.03-28.3 312.26-30.73 314.5-33.15 317.64-34.53 320.77-35.91 324.63-35.91L324.63-35.91Q327.24-35.91 329.53-35.17 331.81-34.42 333.69-33.12 335.57-31.81 337.05-30.02 338.52-28.22 339.51-26.1 340.5-23.97 341.01-21.61 341.53-19.24 341.48-16.82ZM380.15-9.55L380.15-9.55Q380.15-8.06 379.66-6.76 379.17-5.47 378.31-4.41 377.46-3.34 376.32-2.51 375.19-1.68 373.88-1.12 372.58-0.56 371.19-0.28 369.79 0 368.45 0L368.45 0 347.77 0 347.77-35.16 366.67-35.16Q367.91-35.16 369.28-34.97 370.65-34.79 371.95-34.4 373.26-34.01 374.45-33.37 375.63-32.74 376.52-31.82 377.41-30.91 377.94-29.71 378.46-28.52 378.46-26.98L378.46-26.98Q378.46-25.51 377.88-24.32 377.29-23.12 376.3-22.18 375.31-21.24 374.03-20.52 372.75-19.8 371.33-19.26L371.33-19.26Q373.11-18.77 374.71-17.97 376.31-17.16 377.52-15.99 378.73-14.82 379.44-13.22 380.15-11.62 380.15-9.55ZM368.62-26.12L368.62-26.12Q368.62-29.1 367.05-30.47 365.47-31.84 362.57-31.84L362.57-31.84 357.47-31.84 357.47-20.43 361.74-20.43Q363.06-20.43 364.3-20.76 365.55-21.09 366.51-21.79 367.47-22.49 368.05-23.56 368.62-24.63 368.62-26.12ZM370.33-10.16L370.33-10.16Q370.33-11.6 369.97-12.85 369.6-14.11 368.84-15.03 368.09-15.94 366.95-16.47 365.81-16.99 364.28-16.99L364.28-16.99 357.47-16.99 357.47-3.42 363.42-3.42Q364.91-3.42 366.18-3.91 367.45-4.39 368.38-5.27 369.31-6.15 369.82-7.4 370.33-8.64 370.33-10.16ZM417.86-26.44L417.86-26.44 413.69-24.68Q413.2-26.27 412.38-27.59 411.56-28.91 410.43-29.85 409.29-30.79 407.85-31.31 406.41-31.84 404.7-31.84L404.7-31.84Q402.87-31.84 401.35-31.24 399.82-30.64 398.61-29.59 397.4-28.54 396.5-27.15 395.6-25.76 394.99-24.18 394.38-22.61 394.08-20.92 393.79-19.24 393.79-17.63L393.79-17.63Q393.79-15.06 394.39-12.52 394.99-9.99 396.29-7.96 397.6-5.93 399.67-4.68 401.75-3.42 404.7-3.42L404.7-3.42Q406.27-3.42 407.66-3.94 409.05-4.47 410.18-5.38 411.32-6.3 412.17-7.54 413.03-8.79 413.54-10.23L413.54-10.23 417.77-8.54Q416.84-6.23 415.23-4.48 413.61-2.73 411.55-1.59 409.49-0.44 407.13 0.13 404.78 0.71 402.38 0.71L402.38 0.71Q399.8 0.71 397.42 0.07 395.04-0.56 392.99-1.73 390.93-2.91 389.26-4.57 387.59-6.23 386.41-8.25 385.22-10.28 384.57-12.66 383.93-15.04 383.93-17.63L383.93-17.63Q383.93-20.21 384.57-22.6 385.22-24.98 386.41-27.01 387.59-29.05 389.26-30.71 390.93-32.37 392.99-33.54 395.04-34.72 397.42-35.35 399.8-35.99 402.38-35.99L402.38-35.99Q404.87-35.99 407.26-35.4 409.64-34.81 411.69-33.63 413.74-32.45 415.34-30.65 416.94-28.86 417.86-26.44Z" opacity="1" transform="matrix(1,0,0,1,0,0)" fill="#1f299c" class="slogan-text-1" data-fill-palette-color="quaternary" id="text-1"></path></svg></g></svg></g></svg></g></svg></g><g transform="matrix(1,0,0,1,57.57126066045528,0)"><svg viewBox="0 0 98.01591990624655 165.3479060675651" height="165.3479060675651" width="98.01591990624655"><g><svg xmlns="http://www.w3.org/2000/svg" xmlns:cc="http://creativecommons.org/ns#" xmlns:dc="http://purl.org/dc/elements/1.1/" xmlns:rdf="http://www.w3.org/1999/02/22-rdf-syntax-ns#" version="1.1" viewBox="20.197883541561836 1.2496602469675946 57.52711645843816 97.04533975303242" x="0" y="0" height="165.3479060675651" width="98.01591990624655" class="icon-icon-0" data-fill-palette-color="quaternary" id="icon-0"><path d="M44.451 1.25A20.06 20.06 0 0 0 24.5 21.387 20.06 20.06 0 0 0 37.432 40.041L37.391 25.852C37.376 22.134 40.561 19.142 44.501 19.142 48.44 19.141 51.61 22.133 51.61 25.851V40.086A20.06 20.06 0 0 0 64.627 21.313V21.165A20.06 20.06 0 0 0 44.452 1.25zM44.506 21.402C41.867 21.402 39.736 23.406 39.744 25.896L39.842 59.84S39.808 61.551 39.32 61.562C39.23 61.564 39.115 61.49 39.006 61.4L39.002 61.396 27.227 50.166C25.615 48.63 23.139 48.63 21.684 50.162L21.12 50.755C19.666 52.287 20.06 54.515 21.408 56.288L38.303 78.487S38.663 78.984 38.783 79.262C38.99 79.734 39.195 80.751 39.195 80.751L39.546 85.604H35.44C34.54 85.604 33.815 86.774 33.815 88.23V95.67C33.815 97.125 34.54 98.295 35.44 98.295H76.1C77 98.295 77.725 97.125 77.725 95.67V88.23C77.725 86.774 77 85.603 76.1 85.603H72.14C72.06 84.098 72.026 82.257 72.23 81.047 72.595 78.887 73.214 79.487 74.463 74.864 75.713 70.24 75.133 52.098 75.133 52.098 75.353 49.604 73.191 47.576 70.78 47.576 68.599 47.576 66.924 49.233 66.524 51.401L66.516 50.279S66.591 44.801 62.137 44.713C59.843 44.668 58.122 46.628 57.881 49.051L57.851 46.591C57.817 44.044 55.935 41.993 53.558 41.993 51.201 41.994 49.307 44.013 49.274 46.53L49.256 46.272 49.268 25.895C49.269 23.405 47.144 21.4 44.506 21.4z" fill-rule="evenodd" paint-order="fill markers stroke" fill="#1f299c" data-fill-palette-color="quaternary"></path></svg></g></svg></g><g></g></svg></g></svg></g></svg></g></svg></g><defs></defs></svg><rect width="333.90454557049503" height="333.90454557049503" fill="none" stroke="none" visibility="hidden"></rect></g></svg></g></svg>